# xmcd
#
# Track frame offsets: 
#        150
#        18354
#        34676
#        52202
#        64903
#        82957
#        108683
#        124638
#        140436
#        155251
#        173046
#        181560
#        200083
#        213327
#
# Disc length: 3035 seconds
#
# Revision: 6
# Processed by: cddbd v1.5.2PL0 Copyright (c) Steve Scherf et al.
# Submitted via: ExactAudioCopy v1.3
#
DISCID=be0bd90e
DTITLE=Paul Simon - One-Trick Pony
DYEAR=1980
DGENRE=
TTITLE0=Late In The Evening
TTITLE1=That's Why God Made The Movies
TTITLE2=One-Trick Pony
TTITLE3=How The Heart Approaches What It Yearns
TTITLE4=Oh, Marion
TTITLE5=Ace In The Hole
TTITLE6=Nobody
TTITLE7=Jonah
TTITLE8=God Bless The Absentee
TTITLE9=Long, Long Day
TTITLE10=Soft Parachutes [Unreleased Soundtrack Recording]
TTITLE11=All Because Of You [Outtake]
TTITLE12=Spiral Highway [Unreleased Soundtrack Recording]
TTITLE13=Stranded In A Limousine
EXTD=
EXTT0=
EXTT1=
EXTT2=
EXTT3=
EXTT4=
EXTT5=
EXTT6=
EXTT7=
EXTT8=
EXTT9=
EXTT10=
EXTT11=
EXTT12=
EXTT13=
PLAYORDER=
